<?xml version="1.0" encoding="utf-8" standalone="no"?>
<!DOCTYPE svg PUBLIC "-//W3C//DTD SVG 1.1//EN"
  "http://www.w3.org/Graphics/SVG/1.1/DTD/svg11.dtd">
<svg xmlns:xlink="http://www.w3.org/1999/xlink" width="712.474062pt" height="423.990625pt" viewBox="0 0 712.474062 423.990625" xmlns="http://www.w3.org/2000/svg" version="1.1">
 <metadata>
  <rdf:RDF xmlns:dc="http://purl.org/dc/elements/1.1/" xmlns:cc="http://creativecommons.org/ns#" xmlns:rdf="http://www.w3.org/1999/02/22-rdf-syntax-ns#">
   <cc:Work>
    <dc:type rdf:resource="http://purl.org/dc/dcmitype/StillImage"/>
    <dc:date>2026-04-26T13:53:13.229291</dc:date>
    <dc:format>image/svg+xml</dc:format>
    <dc:creator>
     <cc:Agent>
      <dc:title>Matplotlib v3.10.8, https://matplotlib.org/</dc:title>
     </cc:Agent>
    </dc:creator>
   </cc:Work>
  </rdf:RDF>
 </metadata>
 <defs>
  <style type="text/css">*{stroke-linejoin: round; stroke-linecap: butt}</style>
 </defs>
 <g id="figure_1">
  <g id="patch_1">
   <path d="M 0 423.990625 
L 712.474062 423.990625 
L 712.474062 0 
L 0 0 
z
" style="fill: #f8fafc"/>
  </g>
  <g id="axes_1">
   <g id="patch_2">
    <path d="M 72.184063 375.850312 
L 705.274063 375.850312 
L 705.274063 38.070312 
L 72.184063 38.070312 
z
" style="fill: #ffffff"/>
   </g>
   <g id="matplotlib.axis_1">
    <g id="xtick_1">
     <g id="line2d_1">
      <path d="M 388.729063 375.850312 
L 388.729063 38.070312 
" clip-path="url(#p06db06bb5a)" style="fill: none; stroke: #ffffff; stroke-width: 0.8; stroke-linecap: round"/>
     </g>
     <g id="line2d_2">
      <defs>
       <path id="m090bf450e7" d="M 0 0 
L 0 6 
" style="stroke: #475569; stroke-width: 1.2"/>
      </defs>
      <g>
       <use xlink:href="#m090bf450e7" x="388.729063" y="375.850312" style="fill: #475569; stroke: #475569; stroke-width: 1.2"/>
      </g>
     </g>
     <g id="text_1">
      <!-- Thread 5 -->
      <g style="fill: #475569" transform="translate(367.890781 392.597187) scale(0.1 -0.1)">
       <defs>
        <path id="LiberationSans-Bold-54" d="M 2416 3691 
L 2416 0 
L 1494 0 
L 1494 3691 
L 72 3691 
L 72 4403 
L 3841 4403 
L 3841 3691 
L 2416 3691 
z
" transform="scale(0.015625)"/>
        <path id="LiberationSans-Bold-68" d="M 1313 2706 
Q 1491 3094 1759 3269 
Q 2028 3444 2400 3444 
Q 2706 3444 2917 3344 
Q 3128 3244 3261 3069 
Q 3394 2894 3453 2656 
Q 3513 2419 3513 2144 
L 3513 0 
L 2638 0 
L 2638 1894 
Q 2638 2091 2606 2255 
Q 2575 2419 2503 2536 
Q 2431 2653 2315 2718 
Q 2200 2784 2034 2784 
Q 1875 2784 1745 2714 
Q 1616 2644 1522 2514 
Q 1428 2384 1376 2204 
Q 1325 2025 1325 1809 
L 1325 0 
L 447 0 
L 447 4638 
L 1325 4638 
L 1325 3372 
Q 1325 3272 1322 3170 
Q 1319 3069 1314 2980 
Q 1309 2891 1306 2819 
Q 1303 2747 1300 2706 
L 1313 2706 
z
" transform="scale(0.015625)"/>
        <path id="LiberationSans-Bold-72" d="M 447 0 
L 447 2588 
Q 447 2697 445 2819 
Q 444 2941 439 3052 
Q 434 3163 431 3252 
Q 428 3341 422 3381 
L 1259 3381 
Q 1266 3344 1272 3251 
Q 1278 3159 1284 3050 
Q 1291 2941 1295 2833 
Q 1300 2725 1300 2659 
L 1313 2659 
Q 1378 2844 1443 2989 
Q 1509 3134 1598 3236 
Q 1688 3338 1813 3392 
Q 1938 3447 2122 3447 
Q 2200 3447 2276 3433 
Q 2353 3419 2394 3400 
L 2394 2666 
Q 2309 2684 2223 2698 
Q 2138 2713 2019 2713 
Q 1691 2713 1508 2447 
Q 1325 2181 1325 1659 
L 1325 0 
L 447 0 
z
" transform="scale(0.015625)"/>
        <path id="LiberationSans-Bold-65" d="M 1831 -63 
Q 1466 -63 1173 45 
Q 881 153 675 373 
Q 469 594 359 926 
Q 250 1259 250 1706 
Q 250 2191 379 2522 
Q 509 2853 729 3058 
Q 950 3263 1237 3353 
Q 1525 3444 1844 3444 
Q 2244 3444 2526 3305 
Q 2809 3166 2990 2916 
Q 3172 2666 3256 2317 
Q 3341 1969 3341 1547 
L 3341 1522 
L 1172 1522 
Q 1172 1309 1209 1126 
Q 1247 944 1331 811 
Q 1416 678 1550 601 
Q 1684 525 1875 525 
Q 2106 525 2253 623 
Q 2400 722 2463 928 
L 3291 856 
Q 3234 713 3132 550 
Q 3031 388 2862 252 
Q 2694 116 2442 26 
Q 2191 -63 1831 -63 
z
M 1831 2891 
Q 1697 2891 1580 2845 
Q 1463 2800 1377 2701 
Q 1291 2603 1237 2447 
Q 1184 2291 1178 2072 
L 2491 2072 
Q 2466 2481 2294 2686 
Q 2122 2891 1831 2891 
z
" transform="scale(0.015625)"/>
        <path id="LiberationSans-Bold-61" d="M 1228 -63 
Q 984 -63 792 4 
Q 600 72 465 201 
Q 331 331 259 522 
Q 188 713 188 956 
Q 188 1256 292 1461 
Q 397 1666 578 1792 
Q 759 1919 1003 1976 
Q 1247 2034 1522 2038 
L 2250 2050 
L 2250 2222 
Q 2250 2406 2217 2529 
Q 2184 2653 2121 2731 
Q 2059 2809 1967 2842 
Q 1875 2875 1756 2875 
Q 1647 2875 1561 2853 
Q 1475 2831 1412 2776 
Q 1350 2722 1311 2630 
Q 1272 2538 1256 2397 
L 341 2441 
Q 378 2663 478 2845 
Q 578 3028 754 3162 
Q 931 3297 1189 3370 
Q 1447 3444 1794 3444 
Q 2109 3444 2356 3366 
Q 2603 3288 2775 3133 
Q 2947 2978 3037 2753 
Q 3128 2528 3128 2231 
L 3128 1000 
Q 3128 881 3139 787 
Q 3150 694 3179 630 
Q 3209 566 3264 533 
Q 3319 500 3406 500 
Q 3506 500 3600 519 
L 3600 44 
Q 3522 25 3459 9 
Q 3397 -6 3334 -15 
Q 3272 -25 3201 -31 
Q 3131 -38 3038 -38 
Q 2706 -38 2548 125 
Q 2391 288 2359 603 
L 2341 603 
Q 2166 288 1892 112 
Q 1619 -63 1228 -63 
z
M 2250 1566 
L 1800 1559 
Q 1659 1553 1532 1536 
Q 1406 1519 1311 1464 
Q 1216 1409 1159 1306 
Q 1103 1203 1103 1025 
Q 1103 784 1214 667 
Q 1325 550 1509 550 
Q 1678 550 1815 622 
Q 1953 694 2048 811 
Q 2144 928 2197 1081 
Q 2250 1234 2250 1394 
L 2250 1566 
z
" transform="scale(0.015625)"/>
        <path id="LiberationSans-Bold-64" d="M 2638 0 
Q 2631 25 2623 89 
Q 2616 153 2608 234 
Q 2600 316 2595 400 
Q 2591 484 2591 550 
L 2578 550 
Q 2425 222 2151 79 
Q 1878 -63 1497 -63 
Q 1178 -63 945 68 
Q 713 200 561 434 
Q 409 669 336 989 
Q 263 1309 263 1688 
Q 263 2072 339 2394 
Q 416 2716 575 2948 
Q 734 3181 979 3312 
Q 1225 3444 1563 3444 
Q 1728 3444 1881 3409 
Q 2034 3375 2165 3303 
Q 2297 3231 2403 3118 
Q 2509 3006 2584 2847 
L 2591 2847 
Q 2591 2878 2589 2939 
Q 2588 3000 2588 3078 
Q 2588 3156 2586 3240 
Q 2584 3325 2584 3403 
L 2584 4638 
L 3463 4638 
L 3463 738 
Q 3463 491 3472 298 
Q 3481 106 3488 0 
L 2638 0 
z
M 2597 1709 
Q 2597 2044 2534 2264 
Q 2472 2484 2370 2614 
Q 2269 2744 2139 2795 
Q 2009 2847 1875 2847 
Q 1706 2847 1576 2781 
Q 1447 2716 1358 2575 
Q 1269 2434 1223 2215 
Q 1178 1997 1178 1688 
Q 1178 538 1869 538 
Q 2000 538 2131 594 
Q 2263 650 2366 784 
Q 2469 919 2533 1145 
Q 2597 1372 2597 1709 
z
" transform="scale(0.015625)"/>
        <path id="LiberationSans-Bold-20" transform="scale(0.015625)"/>
        <path id="LiberationSans-Bold-35" d="M 3381 1466 
Q 3381 1134 3276 854 
Q 3172 575 2965 370 
Q 2759 166 2454 51 
Q 2150 -63 1750 -63 
Q 1381 -63 1106 26 
Q 831 116 642 273 
Q 453 431 345 643 
Q 238 856 197 1100 
L 1075 1172 
Q 1100 1069 1145 972 
Q 1191 875 1272 800 
Q 1353 725 1472 679 
Q 1591 634 1759 634 
Q 2088 634 2283 843 
Q 2478 1053 2478 1447 
Q 2478 1622 2429 1762 
Q 2381 1903 2292 2003 
Q 2203 2103 2073 2156 
Q 1944 2209 1778 2209 
Q 1559 2209 1418 2126 
Q 1278 2044 1181 1925 
L 325 1925 
L 478 4403 
L 3125 4403 
L 3125 3750 
L 1275 3750 
L 1203 2638 
Q 1334 2753 1534 2836 
Q 1734 2919 2000 2919 
Q 2325 2919 2581 2812 
Q 2838 2706 3016 2515 
Q 3194 2325 3287 2058 
Q 3381 1791 3381 1466 
z
" transform="scale(0.015625)"/>
       </defs>
       <use xlink:href="#LiberationSans-Bold-54"/>
       <use xlink:href="#LiberationSans-Bold-68" transform="translate(61.083984 0)"/>
       <use xlink:href="#LiberationSans-Bold-72" transform="translate(122.167969 0)"/>
       <use xlink:href="#LiberationSans-Bold-65" transform="translate(161.083984 0)"/>
       <use xlink:href="#LiberationSans-Bold-61" transform="translate(216.699219 0)"/>
       <use xlink:href="#LiberationSans-Bold-64" transform="translate(272.314453 0)"/>
       <use xlink:href="#LiberationSans-Bold-20" transform="translate(333.398438 0)"/>
       <use xlink:href="#LiberationSans-Bold-35" transform="translate(361.181641 0)"/>
      </g>
     </g>
    </g>
    <g id="text_2">
     <!-- Comparison -->
     <g style="fill: #262626" transform="translate(350.809688 414.093125) scale(0.13 -0.13)">
      <defs>
       <path id="LiberationSans-Bold-43" d="M 2484 663 
Q 2744 663 2933 736 
Q 3122 809 3261 928 
Q 3400 1047 3492 1197 
Q 3584 1347 3644 1500 
L 4447 1197 
Q 4350 959 4194 731 
Q 4038 503 3803 328 
Q 3569 153 3245 45 
Q 2922 -63 2484 -63 
Q 1913 -63 1494 107 
Q 1075 278 801 583 
Q 528 888 395 1306 
Q 263 1725 263 2222 
Q 263 2738 395 3153 
Q 528 3569 797 3861 
Q 1066 4153 1477 4311 
Q 1888 4469 2444 4469 
Q 2875 4469 3198 4378 
Q 3522 4288 3758 4123 
Q 3994 3959 4148 3736 
Q 4303 3513 4391 3244 
L 3578 3022 
Q 3534 3163 3443 3292 
Q 3353 3422 3214 3522 
Q 3075 3622 2887 3683 
Q 2700 3744 2463 3744 
Q 2128 3744 1887 3636 
Q 1647 3528 1492 3328 
Q 1338 3128 1264 2848 
Q 1191 2569 1191 2222 
Q 1191 1878 1264 1592 
Q 1338 1306 1494 1100 
Q 1650 894 1895 778 
Q 2141 663 2484 663 
z
" transform="scale(0.015625)"/>
       <path id="LiberationSans-Bold-6f" d="M 3659 1694 
Q 3659 1306 3551 984 
Q 3444 663 3228 430 
Q 3013 197 2691 67 
Q 2369 -63 1941 -63 
Q 1528 -63 1212 65 
Q 897 194 683 425 
Q 469 656 359 979 
Q 250 1303 250 1694 
Q 250 2072 354 2392 
Q 459 2713 671 2947 
Q 884 3181 1206 3312 
Q 1528 3444 1959 3444 
Q 2416 3444 2737 3312 
Q 3059 3181 3264 2948 
Q 3469 2716 3564 2395 
Q 3659 2075 3659 1694 
z
M 2741 1694 
Q 2741 2297 2544 2569 
Q 2347 2841 1972 2841 
Q 1584 2841 1378 2566 
Q 1172 2291 1172 1694 
Q 1172 1391 1226 1172 
Q 1281 953 1381 812 
Q 1481 672 1622 605 
Q 1763 538 1931 538 
Q 2125 538 2276 605 
Q 2428 672 2531 812 
Q 2634 953 2687 1172 
Q 2741 1391 2741 1694 
z
" transform="scale(0.015625)"/>
       <path id="LiberationSans-Bold-6d" d="M 2438 0 
L 2438 1897 
Q 2438 2094 2411 2258 
Q 2384 2422 2323 2539 
Q 2263 2656 2164 2722 
Q 2066 2788 1925 2788 
Q 1791 2788 1681 2717 
Q 1572 2647 1492 2517 
Q 1413 2388 1369 2208 
Q 1325 2028 1325 1813 
L 1325 0 
L 447 0 
L 447 2625 
Q 447 2734 445 2850 
Q 444 2966 439 3070 
Q 434 3175 431 3258 
Q 428 3341 422 3381 
L 1259 3381 
Q 1266 3344 1272 3261 
Q 1278 3178 1284 3078 
Q 1291 2978 1295 2878 
Q 1300 2778 1300 2709 
L 1313 2709 
Q 1475 3097 1717 3272 
Q 1959 3447 2297 3447 
Q 2684 3447 2920 3258 
Q 3156 3069 3238 2709 
L 3256 2709 
Q 3347 2919 3451 3059 
Q 3556 3200 3682 3286 
Q 3809 3372 3957 3409 
Q 4106 3447 4281 3447 
Q 4559 3447 4751 3347 
Q 4944 3247 5064 3072 
Q 5184 2897 5239 2659 
Q 5294 2422 5294 2147 
L 5294 0 
L 4422 0 
L 4422 1897 
Q 4422 2094 4395 2258 
Q 4369 2422 4308 2539 
Q 4247 2656 4148 2722 
Q 4050 2788 3909 2788 
Q 3778 2788 3670 2720 
Q 3563 2653 3483 2529 
Q 3403 2406 3359 2234 
Q 3316 2063 3309 1853 
L 3309 0 
L 2438 0 
z
" transform="scale(0.015625)"/>
       <path id="LiberationSans-Bold-70" d="M 3647 1706 
Q 3647 1322 3570 997 
Q 3494 672 3334 437 
Q 3175 203 2929 70 
Q 2684 -63 2350 -63 
Q 2200 -63 2051 -31 
Q 1903 0 1768 70 
Q 1634 141 1520 255 
Q 1406 369 1325 538 
L 1306 538 
Q 1309 522 1312 459 
Q 1316 397 1319 314 
Q 1322 231 1323 139 
Q 1325 47 1325 -31 
L 1325 -1328 
L 447 -1328 
L 447 2603 
Q 447 2863 439 3066 
Q 431 3269 422 3381 
L 1275 3381 
Q 1281 3359 1289 3296 
Q 1297 3234 1301 3153 
Q 1306 3072 1309 2984 
Q 1313 2897 1313 2831 
L 1325 2831 
Q 1484 3166 1762 3309 
Q 2041 3453 2406 3453 
Q 2728 3453 2962 3322 
Q 3197 3191 3348 2959 
Q 3500 2728 3573 2408 
Q 3647 2088 3647 1706 
z
M 2731 1706 
Q 2731 2284 2556 2564 
Q 2381 2844 2034 2844 
Q 1903 2844 1773 2789 
Q 1644 2734 1542 2601 
Q 1441 2469 1377 2245 
Q 1313 2022 1313 1681 
Q 1313 1350 1375 1129 
Q 1438 909 1539 778 
Q 1641 647 1769 592 
Q 1897 538 2028 538 
Q 2197 538 2328 605 
Q 2459 672 2548 814 
Q 2638 956 2684 1178 
Q 2731 1400 2731 1706 
z
" transform="scale(0.015625)"/>
       <path id="LiberationSans-Bold-69" d="M 447 3991 
L 447 4638 
L 1325 4638 
L 1325 3991 
L 447 3991 
z
M 447 0 
L 447 3381 
L 1325 3381 
L 1325 0 
L 447 0 
z
" transform="scale(0.015625)"/>
       <path id="LiberationSans-Bold-73" d="M 3297 988 
Q 3297 744 3195 550 
Q 3094 356 2900 220 
Q 2706 84 2425 10 
Q 2144 -63 1784 -63 
Q 1463 -63 1203 -16 
Q 944 31 748 139 
Q 553 247 422 419 
Q 291 591 225 844 
L 997 959 
Q 1034 819 1100 731 
Q 1166 644 1262 597 
Q 1359 550 1489 534 
Q 1619 519 1784 519 
Q 1934 519 2064 536 
Q 2194 553 2289 595 
Q 2384 638 2437 714 
Q 2491 791 2491 906 
Q 2491 1038 2414 1114 
Q 2338 1191 2205 1239 
Q 2072 1288 1892 1323 
Q 1713 1359 1509 1406 
Q 1297 1453 1090 1518 
Q 884 1584 721 1696 
Q 559 1809 459 1982 
Q 359 2156 359 2422 
Q 359 2663 453 2852 
Q 547 3041 728 3173 
Q 909 3306 1176 3376 
Q 1444 3447 1791 3447 
Q 2066 3447 2303 3395 
Q 2541 3344 2728 3233 
Q 2916 3122 3042 2950 
Q 3169 2778 3219 2534 
L 2441 2453 
Q 2419 2575 2362 2654 
Q 2306 2734 2223 2781 
Q 2141 2828 2031 2845 
Q 1922 2863 1791 2863 
Q 1478 2863 1322 2783 
Q 1166 2703 1166 2516 
Q 1166 2400 1230 2331 
Q 1294 2263 1411 2217 
Q 1528 2172 1689 2139 
Q 1850 2106 2041 2059 
Q 2275 2009 2501 1942 
Q 2728 1875 2904 1758 
Q 3081 1641 3189 1456 
Q 3297 1272 3297 988 
z
" transform="scale(0.015625)"/>
       <path id="LiberationSans-Bold-6e" d="M 2638 0 
L 2638 1897 
Q 2638 2094 2606 2258 
Q 2575 2422 2503 2539 
Q 2431 2656 2315 2722 
Q 2200 2788 2034 2788 
Q 1875 2788 1745 2717 
Q 1616 2647 1522 2517 
Q 1428 2388 1376 2208 
Q 1325 2028 1325 1813 
L 1325 0 
L 447 0 
L 447 2625 
Q 447 2734 445 2850 
Q 444 2966 439 3070 
Q 434 3175 431 3258 
Q 428 3341 422 3381 
L 1259 3381 
Q 1266 3344 1272 3261 
Q 1278 3178 1284 3078 
Q 1291 2978 1295 2878 
Q 1300 2778 1300 2709 
L 1313 2709 
Q 1491 3097 1759 3272 
Q 2028 3447 2400 3447 
Q 2706 3447 2917 3347 
Q 3128 3247 3261 3072 
Q 3394 2897 3453 2659 
Q 3513 2422 3513 2147 
L 3513 0 
L 2638 0 
z
" transform="scale(0.015625)"/>
      </defs>
      <use xlink:href="#LiberationSans-Bold-43"/>
      <use xlink:href="#LiberationSans-Bold-6f" transform="translate(72.216797 0)"/>
      <use xlink:href="#LiberationSans-Bold-6d" transform="translate(133.300781 0)"/>
      <use xlink:href="#LiberationSans-Bold-70" transform="translate(222.216797 0)"/>
      <use xlink:href="#LiberationSans-Bold-61" transform="translate(283.300781 0)"/>
      <use xlink:href="#LiberationSans-Bold-72" transform="translate(338.916016 0)"/>
      <use xlink:href="#LiberationSans-Bold-69" transform="translate(377.832031 0)"/>
      <use xlink:href="#LiberationSans-Bold-73" transform="translate(405.615234 0)"/>
      <use xlink:href="#LiberationSans-Bold-6f" transform="translate(461.230469 0)"/>
      <use xlink:href="#LiberationSans-Bold-6e" transform="translate(522.314453 0)"/>
     </g>
    </g>
   </g>
   <g id="matplotlib.axis_2">
    <g id="ytick_1">
     <g id="line2d_3">
      <path d="M 72.184063 375.850312 
L 705.274063 375.850312 
" clip-path="url(#p06db06bb5a)" style="fill: none; stroke-dasharray: 2.96,1.28; stroke-dashoffset: 0; stroke: #ffffff; stroke-opacity: 0.3; stroke-width: 0.8"/>
     </g>
     <g id="line2d_4">
      <defs>
       <path id="mc1e0fc6b57" d="M 0 0 
L -6 0 
" style="stroke: #475569; stroke-width: 1.2"/>
      </defs>
      <g>
       <use xlink:href="#mc1e0fc6b57" x="72.184063" y="375.850312" style="fill: #475569; stroke: #475569; stroke-width: 1.2"/>
      </g>
     </g>
     <g id="text_3">
      <!-- 0 -->
      <g style="fill: #475569" transform="translate(57.123125 379.47375) scale(0.1 -0.1)">
       <defs>
        <path id="LiberationSans-30" d="M 3309 2203 
Q 3309 1100 2920 518 
Q 2531 -63 1772 -63 
Q 1013 -63 631 515 
Q 250 1094 250 2203 
Q 250 3338 620 3903 
Q 991 4469 1791 4469 
Q 2569 4469 2939 3897 
Q 3309 3325 3309 2203 
z
M 2738 2203 
Q 2738 3156 2517 3584 
Q 2297 4013 1791 4013 
Q 1272 4013 1045 3591 
Q 819 3169 819 2203 
Q 819 1266 1048 831 
Q 1278 397 1778 397 
Q 2275 397 2506 840 
Q 2738 1284 2738 2203 
z
" transform="scale(0.015625)"/>
       </defs>
       <use xlink:href="#LiberationSans-30"/>
      </g>
     </g>
    </g>
    <g id="ytick_2">
     <g id="line2d_5">
      <path d="M 72.184063 326.574905 
L 705.274063 326.574905 
" clip-path="url(#p06db06bb5a)" style="fill: none; stroke-dasharray: 2.96,1.28; stroke-dashoffset: 0; stroke: #ffffff; stroke-opacity: 0.3; stroke-width: 0.8"/>
     </g>
     <g id="line2d_6">
      <g>
       <use xlink:href="#mc1e0fc6b57" x="72.184063" y="326.574905" style="fill: #475569; stroke: #475569; stroke-width: 1.2"/>
      </g>
     </g>
     <g id="text_4">
      <!-- 100000 -->
      <g style="fill: #475569" transform="translate(29.318438 330.198342) scale(0.1 -0.1)">
       <defs>
        <path id="LiberationSans-31" d="M 488 0 
L 488 478 
L 1609 478 
L 1609 3866 
L 616 3156 
L 616 3688 
L 1656 4403 
L 2175 4403 
L 2175 478 
L 3247 478 
L 3247 0 
L 488 0 
z
" transform="scale(0.015625)"/>
       </defs>
       <use xlink:href="#LiberationSans-31"/>
       <use xlink:href="#LiberationSans-30" transform="translate(55.615234 0)"/>
       <use xlink:href="#LiberationSans-30" transform="translate(111.230469 0)"/>
       <use xlink:href="#LiberationSans-30" transform="translate(166.845703 0)"/>
       <use xlink:href="#LiberationSans-30" transform="translate(222.460938 0)"/>
       <use xlink:href="#LiberationSans-30" transform="translate(278.076172 0)"/>
      </g>
     </g>
    </g>
    <g id="ytick_3">
     <g id="line2d_7">
      <path d="M 72.184063 277.299497 
L 705.274063 277.299497 
" clip-path="url(#p06db06bb5a)" style="fill: none; stroke-dasharray: 2.96,1.28; stroke-dashoffset: 0; stroke: #ffffff; stroke-opacity: 0.3; stroke-width: 0.8"/>
     </g>
     <g id="line2d_8">
      <g>
       <use xlink:href="#mc1e0fc6b57" x="72.184063" y="277.299497" style="fill: #475569; stroke: #475569; stroke-width: 1.2"/>
      </g>
     </g>
     <g id="text_5">
      <!-- 200000 -->
      <g style="fill: #475569" transform="translate(29.318438 280.922935) scale(0.1 -0.1)">
       <defs>
        <path id="LiberationSans-32" d="M 322 0 
L 322 397 
Q 481 763 711 1042 
Q 941 1322 1194 1548 
Q 1447 1775 1695 1969 
Q 1944 2163 2144 2356 
Q 2344 2550 2467 2762 
Q 2591 2975 2591 3244 
Q 2591 3606 2378 3806 
Q 2166 4006 1788 4006 
Q 1428 4006 1195 3811 
Q 963 3616 922 3263 
L 347 3316 
Q 409 3844 795 4156 
Q 1181 4469 1788 4469 
Q 2453 4469 2811 4155 
Q 3169 3841 3169 3263 
Q 3169 3006 3051 2753 
Q 2934 2500 2703 2247 
Q 2472 1994 1819 1463 
Q 1459 1169 1246 933 
Q 1034 697 941 478 
L 3238 478 
L 3238 0 
L 322 0 
z
" transform="scale(0.015625)"/>
       </defs>
       <use xlink:href="#LiberationSans-32"/>
       <use xlink:href="#LiberationSans-30" transform="translate(55.615234 0)"/>
       <use xlink:href="#LiberationSans-30" transform="translate(111.230469 0)"/>
       <use xlink:href="#LiberationSans-30" transform="translate(166.845703 0)"/>
       <use xlink:href="#LiberationSans-30" transform="translate(222.460938 0)"/>
       <use xlink:href="#LiberationSans-30" transform="translate(278.076172 0)"/>
      </g>
     </g>
    </g>
    <g id="ytick_4">
     <g id="line2d_9">
      <path d="M 72.184063 228.024089 
L 705.274063 228.024089 
" clip-path="url(#p06db06bb5a)" style="fill: none; stroke-dasharray: 2.96,1.28; stroke-dashoffset: 0; stroke: #ffffff; stroke-opacity: 0.3; stroke-width: 0.8"/>
     </g>
     <g id="line2d_10">
      <g>
       <use xlink:href="#mc1e0fc6b57" x="72.184063" y="228.024089" style="fill: #475569; stroke: #475569; stroke-width: 1.2"/>
      </g>
     </g>
     <g id="text_6">
      <!-- 300000 -->
      <g style="fill: #475569" transform="translate(29.318438 231.647527) scale(0.1 -0.1)">
       <defs>
        <path id="LiberationSans-33" d="M 3278 1216 
Q 3278 606 2890 271 
Q 2503 -63 1784 -63 
Q 1116 -63 717 239 
Q 319 541 244 1131 
L 825 1184 
Q 938 403 1784 403 
Q 2209 403 2451 612 
Q 2694 822 2694 1234 
Q 2694 1594 2417 1795 
Q 2141 1997 1619 1997 
L 1300 1997 
L 1300 2484 
L 1606 2484 
Q 2069 2484 2323 2686 
Q 2578 2888 2578 3244 
Q 2578 3597 2370 3801 
Q 2163 4006 1753 4006 
Q 1381 4006 1151 3815 
Q 922 3625 884 3278 
L 319 3322 
Q 381 3863 767 4166 
Q 1153 4469 1759 4469 
Q 2422 4469 2789 4161 
Q 3156 3853 3156 3303 
Q 3156 2881 2920 2617 
Q 2684 2353 2234 2259 
L 2234 2247 
Q 2728 2194 3003 1916 
Q 3278 1638 3278 1216 
z
" transform="scale(0.015625)"/>
       </defs>
       <use xlink:href="#LiberationSans-33"/>
       <use xlink:href="#LiberationSans-30" transform="translate(55.615234 0)"/>
       <use xlink:href="#LiberationSans-30" transform="translate(111.230469 0)"/>
       <use xlink:href="#LiberationSans-30" transform="translate(166.845703 0)"/>
       <use xlink:href="#LiberationSans-30" transform="translate(222.460938 0)"/>
       <use xlink:href="#LiberationSans-30" transform="translate(278.076172 0)"/>
      </g>
     </g>
    </g>
    <g id="ytick_5">
     <g id="line2d_11">
      <path d="M 72.184063 178.748682 
L 705.274063 178.748682 
" clip-path="url(#p06db06bb5a)" style="fill: none; stroke-dasharray: 2.96,1.28; stroke-dashoffset: 0; stroke: #ffffff; stroke-opacity: 0.3; stroke-width: 0.8"/>
     </g>
     <g id="line2d_12">
      <g>
       <use xlink:href="#mc1e0fc6b57" x="72.184063" y="178.748682" style="fill: #475569; stroke: #475569; stroke-width: 1.2"/>
      </g>
     </g>
     <g id="text_7">
      <!-- 400000 -->
      <g style="fill: #475569" transform="translate(29.318438 182.372119) scale(0.1 -0.1)">
       <defs>
        <path id="LiberationSans-34" d="M 2753 997 
L 2753 0 
L 2222 0 
L 2222 997 
L 147 997 
L 147 1434 
L 2163 4403 
L 2753 4403 
L 2753 1441 
L 3372 1441 
L 3372 997 
L 2753 997 
z
M 2222 3769 
Q 2216 3750 2134 3603 
Q 2053 3456 2013 3397 
L 884 1734 
L 716 1503 
L 666 1441 
L 2222 1441 
L 2222 3769 
z
" transform="scale(0.015625)"/>
       </defs>
       <use xlink:href="#LiberationSans-34"/>
       <use xlink:href="#LiberationSans-30" transform="translate(55.615234 0)"/>
       <use xlink:href="#LiberationSans-30" transform="translate(111.230469 0)"/>
       <use xlink:href="#LiberationSans-30" transform="translate(166.845703 0)"/>
       <use xlink:href="#LiberationSans-30" transform="translate(222.460938 0)"/>
       <use xlink:href="#LiberationSans-30" transform="translate(278.076172 0)"/>
      </g>
     </g>
    </g>
    <g id="ytick_6">
     <g id="line2d_13">
      <path d="M 72.184063 129.473274 
L 705.274063 129.473274 
" clip-path="url(#p06db06bb5a)" style="fill: none; stroke-dasharray: 2.96,1.28; stroke-dashoffset: 0; stroke: #ffffff; stroke-opacity: 0.3; stroke-width: 0.8"/>
     </g>
     <g id="line2d_14">
      <g>
       <use xlink:href="#mc1e0fc6b57" x="72.184063" y="129.473274" style="fill: #475569; stroke: #475569; stroke-width: 1.2"/>
      </g>
     </g>
     <g id="text_8">
      <!-- 500000 -->
      <g style="fill: #475569" transform="translate(29.318438 133.096712) scale(0.1 -0.1)">
       <defs>
        <path id="LiberationSans-35" d="M 3291 1434 
Q 3291 738 2877 337 
Q 2463 -63 1728 -63 
Q 1113 -63 734 206 
Q 356 475 256 984 
L 825 1050 
Q 1003 397 1741 397 
Q 2194 397 2450 670 
Q 2706 944 2706 1422 
Q 2706 1838 2448 2094 
Q 2191 2350 1753 2350 
Q 1525 2350 1328 2278 
Q 1131 2206 934 2034 
L 384 2034 
L 531 4403 
L 3034 4403 
L 3034 3925 
L 1044 3925 
L 959 2528 
Q 1325 2809 1869 2809 
Q 2519 2809 2905 2428 
Q 3291 2047 3291 1434 
z
" transform="scale(0.015625)"/>
       </defs>
       <use xlink:href="#LiberationSans-35"/>
       <use xlink:href="#LiberationSans-30" transform="translate(55.615234 0)"/>
       <use xlink:href="#LiberationSans-30" transform="translate(111.230469 0)"/>
       <use xlink:href="#LiberationSans-30" transform="translate(166.845703 0)"/>
       <use xlink:href="#LiberationSans-30" transform="translate(222.460938 0)"/>
       <use xlink:href="#LiberationSans-30" transform="translate(278.076172 0)"/>
      </g>
     </g>
    </g>
    <g id="ytick_7">
     <g id="line2d_15">
      <path d="M 72.184063 80.197866 
L 705.274063 80.197866 
" clip-path="url(#p06db06bb5a)" style="fill: none; stroke-dasharray: 2.96,1.28; stroke-dashoffset: 0; stroke: #ffffff; stroke-opacity: 0.3; stroke-width: 0.8"/>
     </g>
     <g id="line2d_16">
      <g>
       <use xlink:href="#mc1e0fc6b57" x="72.184063" y="80.197866" style="fill: #475569; stroke: #475569; stroke-width: 1.2"/>
      </g>
     </g>
     <g id="text_9">
      <!-- 600000 -->
      <g style="fill: #475569" transform="translate(29.318438 83.821304) scale(0.1 -0.1)">
       <defs>
        <path id="LiberationSans-36" d="M 3278 1441 
Q 3278 744 2900 340 
Q 2522 -63 1856 -63 
Q 1113 -63 719 490 
Q 325 1044 325 2100 
Q 325 3244 734 3856 
Q 1144 4469 1900 4469 
Q 2897 4469 3156 3572 
L 2619 3475 
Q 2453 4013 1894 4013 
Q 1413 4013 1148 3564 
Q 884 3116 884 2266 
Q 1038 2550 1316 2698 
Q 1594 2847 1953 2847 
Q 2563 2847 2920 2465 
Q 3278 2084 3278 1441 
z
M 2706 1416 
Q 2706 1894 2472 2153 
Q 2238 2413 1819 2413 
Q 1425 2413 1183 2183 
Q 941 1953 941 1550 
Q 941 1041 1192 716 
Q 1444 391 1838 391 
Q 2244 391 2475 664 
Q 2706 938 2706 1416 
z
" transform="scale(0.015625)"/>
       </defs>
       <use xlink:href="#LiberationSans-36"/>
       <use xlink:href="#LiberationSans-30" transform="translate(55.615234 0)"/>
       <use xlink:href="#LiberationSans-30" transform="translate(111.230469 0)"/>
       <use xlink:href="#LiberationSans-30" transform="translate(166.845703 0)"/>
       <use xlink:href="#LiberationSans-30" transform="translate(222.460938 0)"/>
       <use xlink:href="#LiberationSans-30" transform="translate(278.076172 0)"/>
      </g>
     </g>
    </g>
    <g id="text_10">
     <!-- Time (ns) -->
     <g style="fill: #262626" transform="translate(16.620938 235.736016) rotate(-90) scale(0.13 -0.13)">
      <defs>
       <path id="LiberationSans-Bold-28" d="M 1247 -1328 
Q 1006 -981 831 -637 
Q 656 -294 542 68 
Q 428 431 373 823 
Q 319 1216 319 1659 
Q 319 2106 373 2495 
Q 428 2884 542 3245 
Q 656 3606 831 3948 
Q 1006 4291 1247 4638 
L 2125 4638 
Q 1875 4275 1697 3922 
Q 1519 3569 1405 3206 
Q 1291 2844 1237 2461 
Q 1184 2078 1184 1656 
Q 1184 1231 1237 848 
Q 1291 466 1405 103 
Q 1519 -259 1697 -611 
Q 1875 -963 2125 -1328 
L 1247 -1328 
z
" transform="scale(0.015625)"/>
       <path id="LiberationSans-Bold-29" d="M 6 -1328 
Q 256 -963 434 -611 
Q 613 -259 727 103 
Q 841 466 894 848 
Q 947 1231 947 1656 
Q 947 2078 894 2461 
Q 841 2844 727 3206 
Q 613 3569 434 3922 
Q 256 4275 6 4638 
L 884 4638 
Q 1125 4291 1300 3948 
Q 1475 3606 1589 3245 
Q 1703 2884 1758 2495 
Q 1813 2106 1813 1659 
Q 1813 1216 1758 823 
Q 1703 431 1589 68 
Q 1475 -294 1300 -637 
Q 1125 -981 884 -1328 
L 6 -1328 
z
" transform="scale(0.015625)"/>
      </defs>
      <use xlink:href="#LiberationSans-Bold-54"/>
      <use xlink:href="#LiberationSans-Bold-69" transform="translate(59.333984 0)"/>
      <use xlink:href="#LiberationSans-Bold-6d" transform="translate(87.117188 0)"/>
      <use xlink:href="#LiberationSans-Bold-65" transform="translate(176.033203 0)"/>
      <use xlink:href="#LiberationSans-Bold-20" transform="translate(231.648438 0)"/>
      <use xlink:href="#LiberationSans-Bold-28" transform="translate(259.431641 0)"/>
      <use xlink:href="#LiberationSans-Bold-6e" transform="translate(292.732422 0)"/>
      <use xlink:href="#LiberationSans-Bold-73" transform="translate(353.816406 0)"/>
      <use xlink:href="#LiberationSans-Bold-29" transform="translate(409.431641 0)"/>
     </g>
    </g>
   </g>
   <g id="patch_3">
    <path d="M 100.960881 375.850312 
L 355.945346 375.850312 
L 355.945346 54.155074 
L 100.960881 54.155074 
z
" clip-path="url(#p06db06bb5a)" style="fill: #3b82f6; opacity: 0.9; stroke: #ffffff; stroke-width: 2; stroke-linejoin: miter"/>
   </g>
   <g id="patch_4">
    <path d="M 421.512779 375.850312 
L 676.497244 375.850312 
L 676.497244 108.737443 
L 421.512779 108.737443 
z
" clip-path="url(#p06db06bb5a)" style="fill: #8b5cf6; opacity: 0.9; stroke: #ffffff; stroke-width: 2; stroke-linejoin: miter"/>
   </g>
   <g id="patch_5">
    <path d="M 72.184063 375.850312 
L 72.184063 38.070312 
" style="fill: none; stroke: #94a3b8; stroke-width: 1.2; stroke-linejoin: miter; stroke-linecap: square"/>
   </g>
   <g id="patch_6">
    <path d="M 72.184063 375.850312 
L 705.274063 375.850312 
" style="fill: none; stroke: #94a3b8; stroke-width: 1.2; stroke-linejoin: miter; stroke-linecap: square"/>
   </g>
   <g id="text_11">
    <!-- 652852 -->
    <g style="fill: #3b82f6" transform="translate(210.102019 44.504217) scale(0.11 -0.11)">
     <defs>
      <path id="LiberationSans-Bold-36" d="M 3328 1441 
Q 3328 1109 3234 832 
Q 3141 556 2955 357 
Q 2769 159 2491 48 
Q 2213 -63 1847 -63 
Q 1069 -63 651 482 
Q 234 1028 234 2100 
Q 234 3278 657 3873 
Q 1081 4469 1869 4469 
Q 2131 4469 2347 4414 
Q 2563 4359 2731 4237 
Q 2900 4116 3019 3923 
Q 3138 3731 3209 3456 
L 2381 3341 
Q 2319 3572 2178 3673 
Q 2038 3775 1850 3775 
Q 1497 3775 1295 3422 
Q 1094 3069 1094 2350 
Q 1234 2584 1484 2709 
Q 1734 2834 2050 2834 
Q 2341 2834 2577 2739 
Q 2813 2644 2980 2464 
Q 3147 2284 3237 2025 
Q 3328 1766 3328 1441 
z
M 2447 1416 
Q 2447 1594 2406 1736 
Q 2366 1878 2283 1978 
Q 2200 2078 2078 2133 
Q 1956 2188 1797 2188 
Q 1681 2188 1565 2150 
Q 1450 2113 1359 2030 
Q 1269 1947 1212 1819 
Q 1156 1691 1156 1509 
Q 1156 1322 1203 1159 
Q 1250 997 1336 876 
Q 1422 756 1544 689 
Q 1666 622 1819 622 
Q 2116 622 2281 833 
Q 2447 1044 2447 1416 
z
" transform="scale(0.015625)"/>
      <path id="LiberationSans-Bold-32" d="M 222 0 
L 222 609 
Q 372 938 587 1202 
Q 803 1466 1039 1686 
Q 1275 1906 1508 2095 
Q 1741 2284 1927 2461 
Q 2113 2638 2228 2816 
Q 2344 2994 2344 3194 
Q 2344 3488 2197 3628 
Q 2050 3769 1766 3769 
Q 1484 3769 1336 3617 
Q 1188 3466 1144 3163 
L 259 3213 
Q 291 3472 387 3700 
Q 484 3928 664 4100 
Q 844 4272 1114 4370 
Q 1384 4469 1759 4469 
Q 2116 4469 2391 4386 
Q 2666 4303 2853 4143 
Q 3041 3984 3137 3754 
Q 3234 3525 3234 3231 
Q 3234 2922 3112 2672 
Q 2991 2422 2800 2211 
Q 2609 2000 2376 1815 
Q 2144 1631 1925 1456 
Q 1706 1281 1526 1103 
Q 1347 925 1259 722 
L 3303 722 
L 3303 0 
L 222 0 
z
" transform="scale(0.015625)"/>
      <path id="LiberationSans-Bold-38" d="M 3363 1241 
Q 3363 956 3269 717 
Q 3175 478 2981 304 
Q 2788 131 2491 34 
Q 2194 -63 1784 -63 
Q 1378 -63 1079 34 
Q 781 131 586 304 
Q 391 478 297 715 
Q 203 953 203 1234 
Q 203 1475 278 1661 
Q 353 1847 478 1981 
Q 603 2116 765 2195 
Q 928 2275 1100 2303 
L 1100 2316 
Q 916 2356 769 2450 
Q 622 2544 519 2675 
Q 416 2806 361 2967 
Q 306 3128 306 3303 
Q 306 3566 401 3781 
Q 497 3997 681 4150 
Q 866 4303 1139 4386 
Q 1413 4469 1772 4469 
Q 2156 4469 2436 4383 
Q 2716 4297 2897 4142 
Q 3078 3988 3165 3772 
Q 3253 3556 3253 3297 
Q 3253 3125 3198 2964 
Q 3144 2803 3041 2672 
Q 2938 2541 2789 2450 
Q 2641 2359 2453 2322 
L 2453 2309 
Q 2647 2278 2814 2195 
Q 2981 2113 3103 1980 
Q 3225 1847 3294 1661 
Q 3363 1475 3363 1241 
z
M 2350 3250 
Q 2350 3381 2322 3492 
Q 2294 3603 2228 3683 
Q 2163 3763 2052 3808 
Q 1941 3853 1772 3853 
Q 1609 3853 1500 3808 
Q 1391 3763 1325 3683 
Q 1259 3603 1231 3492 
Q 1203 3381 1203 3250 
Q 1203 3134 1226 3021 
Q 1250 2909 1312 2820 
Q 1375 2731 1487 2675 
Q 1600 2619 1778 2619 
Q 1966 2619 2080 2675 
Q 2194 2731 2253 2822 
Q 2313 2913 2331 3025 
Q 2350 3138 2350 3250 
z
M 2453 1313 
Q 2453 1447 2423 1572 
Q 2394 1697 2317 1792 
Q 2241 1888 2106 1945 
Q 1972 2003 1766 2003 
Q 1578 2003 1451 1945 
Q 1325 1888 1248 1791 
Q 1172 1694 1139 1567 
Q 1106 1441 1106 1300 
Q 1106 1134 1139 996 
Q 1172 859 1251 761 
Q 1331 663 1462 609 
Q 1594 556 1791 556 
Q 1988 556 2116 611 
Q 2244 666 2319 766 
Q 2394 866 2423 1005 
Q 2453 1144 2453 1313 
z
" transform="scale(0.015625)"/>
     </defs>
     <use xlink:href="#LiberationSans-Bold-36"/>
     <use xlink:href="#LiberationSans-Bold-35" transform="translate(55.615234 0)"/>
     <use xlink:href="#LiberationSans-Bold-32" transform="translate(111.230469 0)"/>
     <use xlink:href="#LiberationSans-Bold-38" transform="translate(166.845703 0)"/>
     <use xlink:href="#LiberationSans-Bold-35" transform="translate(222.460938 0)"/>
     <use xlink:href="#LiberationSans-Bold-32" transform="translate(278.076172 0)"/>
    </g>
   </g>
   <g id="text_12">
    <!-- 542082 -->
    <g style="fill: #8b5cf6" transform="translate(530.653918 100.724057) scale(0.11 -0.11)">
     <defs>
      <path id="LiberationSans-Bold-34" d="M 2938 897 
L 2938 0 
L 2100 0 
L 2100 897 
L 97 897 
L 97 1556 
L 1956 4403 
L 2938 4403 
L 2938 1550 
L 3525 1550 
L 3525 897 
L 2938 897 
z
M 2100 2991 
Q 2100 3044 2101 3130 
Q 2103 3216 2108 3306 
Q 2113 3397 2117 3480 
Q 2122 3563 2128 3609 
Q 2113 3575 2078 3511 
Q 2044 3447 2001 3373 
Q 1959 3300 1914 3228 
Q 1869 3156 1834 3103 
L 813 1550 
L 2100 1550 
L 2100 2991 
z
" transform="scale(0.015625)"/>
      <path id="LiberationSans-Bold-30" d="M 3297 2203 
Q 3297 1572 3181 1139 
Q 3066 706 2861 439 
Q 2656 172 2376 54 
Q 2097 -63 1766 -63 
Q 1434 -63 1156 53 
Q 878 169 678 436 
Q 478 703 365 1136 
Q 253 1569 253 2203 
Q 253 2869 364 3305 
Q 475 3741 678 4000 
Q 881 4259 1164 4364 
Q 1447 4469 1791 4469 
Q 2113 4469 2389 4364 
Q 2666 4259 2867 4000 
Q 3069 3741 3183 3305 
Q 3297 2869 3297 2203 
z
M 2416 2203 
Q 2416 2669 2381 2973 
Q 2347 3278 2272 3458 
Q 2197 3638 2076 3709 
Q 1956 3781 1784 3781 
Q 1600 3781 1475 3707 
Q 1350 3634 1273 3453 
Q 1197 3272 1164 2967 
Q 1131 2663 1131 2203 
Q 1131 1750 1165 1447 
Q 1200 1144 1275 961 
Q 1350 778 1472 703 
Q 1594 628 1772 628 
Q 1944 628 2066 703 
Q 2188 778 2266 961 
Q 2344 1144 2380 1447 
Q 2416 1750 2416 2203 
z
" transform="scale(0.015625)"/>
     </defs>
     <use xlink:href="#LiberationSans-Bold-35"/>
     <use xlink:href="#LiberationSans-Bold-34" transform="translate(55.615234 0)"/>
     <use xlink:href="#LiberationSans-Bold-32" transform="translate(111.230469 0)"/>
     <use xlink:href="#LiberationSans-Bold-30" transform="translate(166.845703 0)"/>
     <use xlink:href="#LiberationSans-Bold-38" transform="translate(222.460938 0)"/>
     <use xlink:href="#LiberationSans-Bold-32" transform="translate(278.076172 0)"/>
    </g>
   </g>
   <g id="text_13">
    <!-- Test Double Exec | do_execveat_common | Median -->
    <g style="fill: #262626" transform="translate(207.954453 18.070312) scale(0.15 -0.15)">
     <defs>
      <path id="LiberationSans-Bold-74" d="M 1313 -56 
Q 925 -56 715 155 
Q 506 366 506 794 
L 506 2788 
L 78 2788 
L 78 3381 
L 550 3381 
L 825 4175 
L 1375 4175 
L 1375 3381 
L 2016 3381 
L 2016 2788 
L 1375 2788 
L 1375 1031 
Q 1375 784 1469 667 
Q 1563 550 1759 550 
Q 1841 550 1906 562 
Q 1972 575 2053 594 
L 2053 50 
Q 1891 -3 1709 -29 
Q 1528 -56 1313 -56 
z
" transform="scale(0.015625)"/>
      <path id="LiberationSans-Bold-44" d="M 4353 2234 
Q 4353 1684 4187 1267 
Q 4022 850 3734 569 
Q 3447 288 3055 144 
Q 2663 0 2209 0 
L 428 0 
L 428 4403 
L 2022 4403 
Q 2534 4403 2962 4275 
Q 3391 4147 3700 3881 
Q 4009 3616 4181 3206 
Q 4353 2797 4353 2234 
z
M 3425 2234 
Q 3425 2619 3320 2894 
Q 3216 3169 3028 3345 
Q 2841 3522 2580 3606 
Q 2319 3691 2003 3691 
L 1350 3691 
L 1350 713 
L 2131 713 
Q 2409 713 2645 809 
Q 2881 906 3054 1098 
Q 3228 1291 3326 1575 
Q 3425 1859 3425 2234 
z
" transform="scale(0.015625)"/>
      <path id="LiberationSans-Bold-75" d="M 1275 3381 
L 1275 1484 
Q 1275 1288 1306 1123 
Q 1338 959 1409 842 
Q 1481 725 1595 659 
Q 1709 594 1875 594 
Q 2034 594 2164 664 
Q 2294 734 2387 864 
Q 2481 994 2532 1173 
Q 2584 1353 2584 1569 
L 2584 3381 
L 3463 3381 
L 3463 756 
Q 3463 650 3464 533 
Q 3466 416 3470 311 
Q 3475 206 3479 123 
Q 3484 41 3488 0 
L 2650 0 
Q 2647 38 2639 120 
Q 2631 203 2626 303 
Q 2622 403 2617 503 
Q 2613 603 2613 672 
L 2597 672 
Q 2422 288 2151 112 
Q 1881 -63 1509 -63 
Q 1206 -63 993 37 
Q 781 138 648 311 
Q 516 484 456 721 
Q 397 959 397 1234 
L 397 3381 
L 1275 3381 
z
" transform="scale(0.015625)"/>
      <path id="LiberationSans-Bold-62" d="M 3647 1703 
Q 3647 1319 3570 995 
Q 3494 672 3334 436 
Q 3175 200 2929 68 
Q 2684 -63 2350 -63 
Q 2200 -63 2050 -31 
Q 1900 0 1765 72 
Q 1631 144 1518 259 
Q 1406 375 1325 544 
L 1319 544 
Q 1319 478 1314 393 
Q 1309 309 1303 229 
Q 1297 150 1289 87 
Q 1281 25 1275 0 
L 422 0 
Q 431 109 439 311 
Q 447 513 447 772 
L 447 4638 
L 1325 4638 
L 1325 3344 
Q 1325 3244 1323 3148 
Q 1322 3053 1319 2972 
Q 1316 2878 1313 2794 
L 1325 2794 
Q 1484 3144 1762 3294 
Q 2041 3444 2406 3444 
Q 2731 3444 2965 3314 
Q 3200 3184 3351 2951 
Q 3503 2719 3575 2400 
Q 3647 2081 3647 1703 
z
M 2731 1703 
Q 2731 2278 2562 2556 
Q 2394 2834 2041 2834 
Q 1906 2834 1775 2781 
Q 1644 2728 1541 2595 
Q 1438 2463 1375 2239 
Q 1313 2016 1313 1675 
Q 1313 1344 1375 1125 
Q 1438 906 1538 775 
Q 1638 644 1769 591 
Q 1900 538 2034 538 
Q 2369 538 2550 814 
Q 2731 1091 2731 1703 
z
" transform="scale(0.015625)"/>
      <path id="LiberationSans-Bold-6c" d="M 447 0 
L 447 4638 
L 1325 4638 
L 1325 0 
L 447 0 
z
" transform="scale(0.015625)"/>
      <path id="LiberationSans-Bold-45" d="M 428 0 
L 428 4403 
L 3891 4403 
L 3891 3691 
L 1350 3691 
L 1350 2584 
L 3700 2584 
L 3700 1872 
L 1350 1872 
L 1350 713 
L 4019 713 
L 4019 0 
L 428 0 
z
" transform="scale(0.015625)"/>
      <path id="LiberationSans-Bold-78" d="M 2559 0 
L 1772 1225 
L 978 0 
L 44 0 
L 1281 1747 
L 103 3381 
L 1050 3381 
L 1772 2275 
L 2491 3381 
L 3444 3381 
L 2266 1756 
L 3513 0 
L 2559 0 
z
" transform="scale(0.015625)"/>
      <path id="LiberationSans-Bold-63" d="M 1856 -63 
Q 1453 -63 1151 62 
Q 850 188 650 416 
Q 450 644 350 964 
Q 250 1284 250 1672 
Q 250 2094 359 2423 
Q 469 2753 675 2979 
Q 881 3206 1182 3325 
Q 1484 3444 1869 3444 
Q 2197 3444 2451 3356 
Q 2706 3269 2890 3117 
Q 3075 2966 3189 2759 
Q 3303 2553 3347 2316 
L 2463 2272 
Q 2425 2531 2275 2686 
Q 2125 2841 1850 2841 
Q 1497 2841 1334 2550 
Q 1172 2259 1172 1706 
Q 1172 538 1863 538 
Q 2113 538 2281 695 
Q 2450 853 2491 1166 
L 3372 1125 
Q 3341 891 3230 677 
Q 3119 463 2930 298 
Q 2741 134 2472 35 
Q 2203 -63 1856 -63 
z
" transform="scale(0.015625)"/>
      <path id="LiberationSans-Bold-7c" d="M 488 -1422 
L 488 4638 
L 1306 4638 
L 1306 -1422 
L 488 -1422 
z
" transform="scale(0.015625)"/>
      <path id="LiberationSans-Bold-5f" d="M -63 -781 
L -63 -538 
L 3616 -538 
L 3616 -781 
L -63 -781 
z
" transform="scale(0.015625)"/>
      <path id="LiberationSans-Bold-76" d="M 1766 709 
L 2613 3381 
L 3531 3381 
L 2284 0 
L 1234 0 
L 25 3381 
L 953 3381 
L 1766 709 
z
" transform="scale(0.015625)"/>
      <path id="LiberationSans-Bold-4d" d="M 4084 0 
L 4084 2669 
Q 4084 2828 4089 2997 
Q 4094 3166 4100 3306 
Q 4109 3472 4116 3628 
Q 4050 3381 3991 3159 
Q 3966 3066 3937 2966 
Q 3909 2866 3882 2772 
Q 3856 2678 3831 2597 
Q 3806 2516 3788 2456 
L 2994 0 
L 2338 0 
L 1544 2456 
Q 1525 2516 1501 2597 
Q 1478 2678 1451 2772 
Q 1425 2866 1397 2966 
Q 1369 3066 1341 3159 
Q 1278 3381 1209 3628 
Q 1219 3447 1228 3272 
Q 1234 3122 1240 2956 
Q 1247 2791 1247 2669 
L 1247 0 
L 428 0 
L 428 4403 
L 1663 4403 
L 2450 1941 
Q 2481 1844 2517 1703 
Q 2553 1563 2588 1431 
Q 2625 1278 2669 1113 
Q 2713 1275 2753 1425 
Q 2772 1491 2790 1559 
Q 2809 1628 2828 1693 
Q 2847 1759 2865 1818 
Q 2884 1878 2900 1925 
L 3675 4403 
L 4903 4403 
L 4903 0 
L 4084 0 
z
" transform="scale(0.015625)"/>
     </defs>
     <use xlink:href="#LiberationSans-Bold-54"/>
     <use xlink:href="#LiberationSans-Bold-65" transform="translate(53.708984 0)"/>
     <use xlink:href="#LiberationSans-Bold-73" transform="translate(109.324219 0)"/>
     <use xlink:href="#LiberationSans-Bold-74" transform="translate(164.939453 0)"/>
     <use xlink:href="#LiberationSans-Bold-20" transform="translate(198.240234 0)"/>
     <use xlink:href="#LiberationSans-Bold-44" transform="translate(226.023438 0)"/>
     <use xlink:href="#LiberationSans-Bold-6f" transform="translate(298.240234 0)"/>
     <use xlink:href="#LiberationSans-Bold-75" transform="translate(359.324219 0)"/>
     <use xlink:href="#LiberationSans-Bold-62" transform="translate(420.408203 0)"/>
     <use xlink:href="#LiberationSans-Bold-6c" transform="translate(481.492188 0)"/>
     <use xlink:href="#LiberationSans-Bold-65" transform="translate(509.275391 0)"/>
     <use xlink:href="#LiberationSans-Bold-20" transform="translate(564.890625 0)"/>
     <use xlink:href="#LiberationSans-Bold-45" transform="translate(592.673828 0)"/>
     <use xlink:href="#LiberationSans-Bold-78" transform="translate(659.373047 0)"/>
     <use xlink:href="#LiberationSans-Bold-65" transform="translate(714.988281 0)"/>
     <use xlink:href="#LiberationSans-Bold-63" transform="translate(770.603516 0)"/>
     <use xlink:href="#LiberationSans-Bold-20" transform="translate(826.21875 0)"/>
     <use xlink:href="#LiberationSans-Bold-7c" transform="translate(854.001953 0)"/>
     <use xlink:href="#LiberationSans-Bold-20" transform="translate(881.980469 0)"/>
     <use xlink:href="#LiberationSans-Bold-64" transform="translate(909.763672 0)"/>
     <use xlink:href="#LiberationSans-Bold-6f" transform="translate(970.847656 0)"/>
     <use xlink:href="#LiberationSans-Bold-5f" transform="translate(1031.931641 0)"/>
     <use xlink:href="#LiberationSans-Bold-65" transform="translate(1087.546875 0)"/>
     <use xlink:href="#LiberationSans-Bold-78" transform="translate(1143.162109 0)"/>
     <use xlink:href="#LiberationSans-Bold-65" transform="translate(1198.777344 0)"/>
     <use xlink:href="#LiberationSans-Bold-63" transform="translate(1254.392578 0)"/>
     <use xlink:href="#LiberationSans-Bold-76" transform="translate(1310.007812 0)"/>
     <use xlink:href="#LiberationSans-Bold-65" transform="translate(1365.623047 0)"/>
     <use xlink:href="#LiberationSans-Bold-61" transform="translate(1421.238281 0)"/>
     <use xlink:href="#LiberationSans-Bold-74" transform="translate(1476.853516 0)"/>
     <use xlink:href="#LiberationSans-Bold-5f" transform="translate(1510.154297 0)"/>
     <use xlink:href="#LiberationSans-Bold-63" transform="translate(1565.769531 0)"/>
     <use xlink:href="#LiberationSans-Bold-6f" transform="translate(1621.384766 0)"/>
     <use xlink:href="#LiberationSans-Bold-6d" transform="translate(1682.46875 0)"/>
     <use xlink:href="#LiberationSans-Bold-6d" transform="translate(1771.384766 0)"/>
     <use xlink:href="#LiberationSans-Bold-6f" transform="translate(1860.300781 0)"/>
     <use xlink:href="#LiberationSans-Bold-6e" transform="translate(1921.384766 0)"/>
     <use xlink:href="#LiberationSans-Bold-20" transform="translate(1982.46875 0)"/>
     <use xlink:href="#LiberationSans-Bold-7c" transform="translate(2010.251953 0)"/>
     <use xlink:href="#LiberationSans-Bold-20" transform="translate(2038.230469 0)"/>
     <use xlink:href="#LiberationSans-Bold-4d" transform="translate(2066.013672 0)"/>
     <use xlink:href="#LiberationSans-Bold-65" transform="translate(2149.314453 0)"/>
     <use xlink:href="#LiberationSans-Bold-64" transform="translate(2204.929688 0)"/>
     <use xlink:href="#LiberationSans-Bold-69" transform="translate(2266.013672 0)"/>
     <use xlink:href="#LiberationSans-Bold-61" transform="translate(2293.796875 0)"/>
     <use xlink:href="#LiberationSans-Bold-6e" transform="translate(2349.412109 0)"/>
    </g>
   </g>
   <g id="legend_1">
    <g id="patch_7">
     <path d="M 535.2475 62.392187 
L 700.274063 62.392187 
Q 702.274063 62.392187 702.274063 60.392187 
L 702.274063 47.070312 
Q 702.274063 45.070312 700.274063 45.070312 
L 535.2475 45.070312 
Q 533.2475 45.070312 533.2475 47.070312 
L 533.2475 60.392187 
Q 533.2475 62.392187 535.2475 62.392187 
z
" style="fill: #464649; opacity: 0.5; stroke: #464649; stroke-linejoin: miter"/>
    </g>
    <g id="patch_8">
     <path d="M 533.2475 60.392187 
L 698.274063 60.392187 
Q 700.274063 60.392187 700.274063 58.392187 
L 700.274063 45.070312 
Q 700.274063 43.070312 698.274063 43.070312 
L 533.2475 43.070312 
Q 531.2475 43.070312 531.2475 45.070312 
L 531.2475 58.392187 
Q 531.2475 60.392187 533.2475 60.392187 
z
" style="fill: #eaeaf2; opacity: 0.95; stroke: #cbd5e1; stroke-linejoin: miter"/>
    </g>
    <g id="patch_9">
     <path d="M 535.2475 54.317187 
L 555.2475 54.317187 
L 555.2475 47.317187 
L 535.2475 47.317187 
z
" style="fill: #3b82f6; opacity: 0.9; stroke: #ffffff; stroke-width: 2; stroke-linejoin: miter"/>
    </g>
    <g id="text_14">
     <!-- total (org) -->
     <g style="fill: #262626" transform="translate(563.2475 54.317187) scale(0.1 -0.1)">
      <defs>
       <path id="LiberationSans-74" d="M 1731 25 
Q 1453 -50 1163 -50 
Q 488 -50 488 716 
L 488 2972 
L 97 2972 
L 97 3381 
L 509 3381 
L 675 4138 
L 1050 4138 
L 1050 3381 
L 1675 3381 
L 1675 2972 
L 1050 2972 
L 1050 838 
Q 1050 594 1129 495 
Q 1209 397 1406 397 
Q 1519 397 1731 441 
L 1731 25 
z
" transform="scale(0.015625)"/>
       <path id="LiberationSans-6f" d="M 3291 1694 
Q 3291 806 2900 371 
Q 2509 -63 1766 -63 
Q 1025 -63 647 389 
Q 269 841 269 1694 
Q 269 3444 1784 3444 
Q 2559 3444 2925 3017 
Q 3291 2591 3291 1694 
z
M 2700 1694 
Q 2700 2394 2492 2711 
Q 2284 3028 1794 3028 
Q 1300 3028 1079 2704 
Q 859 2381 859 1694 
Q 859 1025 1076 689 
Q 1294 353 1759 353 
Q 2266 353 2483 678 
Q 2700 1003 2700 1694 
z
" transform="scale(0.015625)"/>
       <path id="LiberationSans-61" d="M 1294 -63 
Q 784 -63 528 206 
Q 272 475 272 944 
Q 272 1469 617 1750 
Q 963 2031 1731 2050 
L 2491 2063 
L 2491 2247 
Q 2491 2659 2316 2837 
Q 2141 3016 1766 3016 
Q 1388 3016 1216 2887 
Q 1044 2759 1009 2478 
L 422 2531 
Q 566 3444 1778 3444 
Q 2416 3444 2737 3151 
Q 3059 2859 3059 2306 
L 3059 850 
Q 3059 600 3125 473 
Q 3191 347 3375 347 
Q 3456 347 3559 369 
L 3559 19 
Q 3347 -31 3125 -31 
Q 2813 -31 2670 133 
Q 2528 297 2509 647 
L 2491 647 
Q 2275 259 1989 98 
Q 1703 -63 1294 -63 
z
M 1422 359 
Q 1731 359 1972 500 
Q 2213 641 2352 886 
Q 2491 1131 2491 1391 
L 2491 1669 
L 1875 1656 
Q 1478 1650 1273 1575 
Q 1069 1500 959 1344 
Q 850 1188 850 934 
Q 850 659 998 509 
Q 1147 359 1422 359 
z
" transform="scale(0.015625)"/>
       <path id="LiberationSans-6c" d="M 431 0 
L 431 4638 
L 994 4638 
L 994 0 
L 431 0 
z
" transform="scale(0.015625)"/>
       <path id="LiberationSans-20" transform="scale(0.015625)"/>
       <path id="LiberationSans-28" d="M 397 1663 
Q 397 2566 680 3284 
Q 963 4003 1550 4638 
L 2094 4638 
Q 1509 3988 1236 3256 
Q 963 2525 963 1656 
Q 963 791 1233 62 
Q 1503 -666 2094 -1325 
L 1550 -1325 
Q 959 -688 678 32 
Q 397 753 397 1650 
L 397 1663 
z
" transform="scale(0.015625)"/>
       <path id="LiberationSans-72" d="M 444 0 
L 444 2594 
Q 444 2950 425 3381 
L 956 3381 
Q 981 2806 981 2691 
L 994 2691 
Q 1128 3125 1303 3284 
Q 1478 3444 1797 3444 
Q 1909 3444 2025 3413 
L 2025 2897 
Q 1913 2928 1725 2928 
Q 1375 2928 1190 2626 
Q 1006 2325 1006 1763 
L 1006 0 
L 444 0 
z
" transform="scale(0.015625)"/>
       <path id="LiberationSans-67" d="M 1713 -1328 
Q 1159 -1328 831 -1111 
Q 503 -894 409 -494 
L 975 -413 
Q 1031 -647 1223 -773 
Q 1416 -900 1728 -900 
Q 2569 -900 2569 84 
L 2569 628 
L 2563 628 
Q 2403 303 2125 139 
Q 1847 -25 1475 -25 
Q 853 -25 561 387 
Q 269 800 269 1684 
Q 269 2581 583 3007 
Q 897 3434 1538 3434 
Q 1897 3434 2161 3270 
Q 2425 3106 2569 2803 
L 2575 2803 
Q 2575 2897 2587 3128 
Q 2600 3359 2613 3381 
L 3147 3381 
Q 3128 3213 3128 2681 
L 3128 97 
Q 3128 -1328 1713 -1328 
z
M 2569 1691 
Q 2569 2103 2456 2401 
Q 2344 2700 2139 2858 
Q 1934 3016 1675 3016 
Q 1244 3016 1047 2703 
Q 850 2391 850 1691 
Q 850 997 1034 694 
Q 1219 391 1666 391 
Q 1931 391 2137 547 
Q 2344 703 2456 995 
Q 2569 1288 2569 1691 
z
" transform="scale(0.015625)"/>
       <path id="LiberationSans-29" d="M 1734 1650 
Q 1734 747 1451 28 
Q 1169 -691 581 -1325 
L 38 -1325 
Q 625 -669 897 57 
Q 1169 784 1169 1656 
Q 1169 2528 895 3256 
Q 622 3984 38 4638 
L 581 4638 
Q 1172 4000 1453 3279 
Q 1734 2559 1734 1663 
L 1734 1650 
z
" transform="scale(0.015625)"/>
      </defs>
      <use xlink:href="#LiberationSans-74"/>
      <use xlink:href="#LiberationSans-6f" transform="translate(27.783203 0)"/>
      <use xlink:href="#LiberationSans-74" transform="translate(83.398438 0)"/>
      <use xlink:href="#LiberationSans-61" transform="translate(111.181641 0)"/>
      <use xlink:href="#LiberationSans-6c" transform="translate(166.796875 0)"/>
      <use xlink:href="#LiberationSans-20" transform="translate(189.013672 0)"/>
      <use xlink:href="#LiberationSans-28" transform="translate(216.796875 0)"/>
      <use xlink:href="#LiberationSans-6f" transform="translate(250.097656 0)"/>
      <use xlink:href="#LiberationSans-72" transform="translate(305.712891 0)"/>
      <use xlink:href="#LiberationSans-67" transform="translate(339.013672 0)"/>
      <use xlink:href="#LiberationSans-29" transform="translate(394.628906 0)"/>
     </g>
    </g>
    <g id="patch_10">
     <path d="M 626.036563 54.317187 
L 646.036563 54.317187 
L 646.036563 47.317187 
L 626.036563 47.317187 
z
" style="fill: #8b5cf6; opacity: 0.9; stroke: #ffffff; stroke-width: 2; stroke-linejoin: miter"/>
    </g>
    <g id="text_15">
     <!-- total (opt) -->
     <g style="fill: #262626" transform="translate(654.036563 54.317187) scale(0.1 -0.1)">
      <defs>
       <path id="LiberationSans-70" d="M 3291 1706 
Q 3291 -63 2047 -63 
Q 1266 -63 997 525 
L 981 525 
Q 994 500 994 -6 
L 994 -1328 
L 431 -1328 
L 431 2691 
Q 431 3213 413 3381 
L 956 3381 
Q 959 3369 965 3292 
Q 972 3216 980 3056 
Q 988 2897 988 2838 
L 1000 2838 
Q 1150 3150 1397 3295 
Q 1644 3441 2047 3441 
Q 2672 3441 2981 3022 
Q 3291 2603 3291 1706 
z
M 2700 1694 
Q 2700 2400 2509 2703 
Q 2319 3006 1903 3006 
Q 1569 3006 1380 2865 
Q 1191 2725 1092 2426 
Q 994 2128 994 1650 
Q 994 984 1206 668 
Q 1419 353 1897 353 
Q 2316 353 2508 661 
Q 2700 969 2700 1694 
z
" transform="scale(0.015625)"/>
      </defs>
      <use xlink:href="#LiberationSans-74"/>
      <use xlink:href="#LiberationSans-6f" transform="translate(27.783203 0)"/>
      <use xlink:href="#LiberationSans-74" transform="translate(83.398438 0)"/>
      <use xlink:href="#LiberationSans-61" transform="translate(111.181641 0)"/>
      <use xlink:href="#LiberationSans-6c" transform="translate(166.796875 0)"/>
      <use xlink:href="#LiberationSans-20" transform="translate(189.013672 0)"/>
      <use xlink:href="#LiberationSans-28" transform="translate(216.796875 0)"/>
      <use xlink:href="#LiberationSans-6f" transform="translate(250.097656 0)"/>
      <use xlink:href="#LiberationSans-70" transform="translate(305.712891 0)"/>
      <use xlink:href="#LiberationSans-74" transform="translate(361.328125 0)"/>
      <use xlink:href="#LiberationSans-29" transform="translate(389.111328 0)"/>
     </g>
    </g>
   </g>
  </g>
 </g>
 <defs>
  <clipPath id="p06db06bb5a">
   <rect x="72.184063" y="38.070312" width="633.09" height="337.78"/>
  </clipPath>
 </defs>
</svg>
